<?xml version="1.0" encoding="UTF-8" standalone="no"?>
<!-- Created with Inkscape (http://www.inkscape.org/) -->

<svg
   width="210mm"
   height="297mm"
   viewBox="0 0 210 297"
   version="1.1"
   id="svg1"
   inkscape:version="1.4 (86a8ad7, 2024-10-11)"
   sodipodi:docname="icon-parameter.svg"
   inkscape:export-filename="icon-parameter.png"
   inkscape:export-xdpi="96"
   inkscape:export-ydpi="96"
   xmlns:inkscape="http://www.inkscape.org/namespaces/inkscape"
   xmlns:sodipodi="http://sodipodi.sourceforge.net/DTD/sodipodi-0.dtd"
   xmlns="http://www.w3.org/2000/svg"
   xmlns:svg="http://www.w3.org/2000/svg">
  <sodipodi:namedview
     id="namedview1"
     pagecolor="#505050"
     bordercolor="#eeeeee"
     borderopacity="1"
     inkscape:showpageshadow="0"
     inkscape:pageopacity="0"
     inkscape:pagecheckerboard="0"
     inkscape:deskcolor="#505050"
     inkscape:document-units="mm"
     inkscape:zoom="2.9683221"
     inkscape:cx="64.009225"
     inkscape:cy="70.241703"
     inkscape:window-width="2400"
     inkscape:window-height="1321"
     inkscape:window-x="2391"
     inkscape:window-y="465"
     inkscape:window-maximized="1"
     inkscape:current-layer="layer1" />
  <defs
     id="defs1" />
  <g
     inkscape:label="Calque 1"
     inkscape:groupmode="layer"
     id="layer1">
    <path
       id="path2"
       style="display:inline;fill:#9f9f9f;fill-opacity:1;stroke:#000000;stroke-width:1.5;stroke-dasharray:none"
       d="M 15.544375,4.9015279 A 10.600574,10.600652 0 0 0 4.9439433,15.502039 10.600574,10.600652 0 0 0 15.544375,26.103427 10.600574,10.600652 0 0 0 26.144806,15.502039 10.600574,10.600652 0 0 0 15.544375,4.9015279 Z m 0,7.0421311 a 3.5587639,3.5587904 0 0 1 3.55923,3.55838 3.5587639,3.5587904 0 0 1 -3.55923,3.559256 3.5587639,3.5587904 0 0 1 -3.558353,-3.559256 3.5587639,3.5587904 0 0 1 3.558353,-3.55838 z"
       inkscape:label="cercle" />
    <path
       id="path1"
       style="display:inline;fill:#b5b5b5;fill-opacity:1;stroke:#000000;stroke-width:1.5;stroke-dasharray:none"
       inkscape:transform-center-x="1.546525"
       inkscape:transform-center-y="-1.6078126"
       d="m 12.252081,3.949078 c -0.211868,-0.015661 -0.456213,0.021754 -0.739499,0.1225412 -3.0217251,1.0750536 2.009535,4.9233353 -0.2465,7.2030138 -2.2560355,2.279679 -6.1559889,-2.7112029 -7.1994997,0.321581 -1.0435108,3.032785 5.1018468,1.498272 5.4775408,4.683482 0.3756948,3.185211 -5.9584457,3.123504 -4.2379575,5.83027 1.7204881,2.706766 4.3531473,-3.055044 7.0776654,-1.362829 2.724519,1.692214 -1.27359,6.605517 1.915333,6.948016 3.188925,0.342496 0.325859,-5.307715 3.347584,-6.382768 3.021724,-1.075053 4.370422,5.113708 6.626457,2.834031 2.256035,-2.279678 -3.946968,-3.563898 -2.903457,-6.596683 1.04351,-3.032784 6.723776,-0.228235 6.348082,-3.413445 -0.375694,-3.18521 -5.247387,0.863692 -6.967875,-1.843076 C 19.029468,9.5864452 24.762932,6.894329 22.038414,5.2021152 19.313895,3.5099005 19.44238,9.8427628 16.253456,9.5002647 13.363493,9.1898757 14.300146,4.1004707 12.252081,3.949078 Z m 3.349709,7.584095 a 4.0319069,4.0318915 0 0 1 4.031832,4.031819 4.0319069,4.0318915 0 0 1 -4.031832,4.032525 4.0319069,4.0318915 0 0 1 -4.031834,-4.032525 4.0319069,4.0318915 0 0 1 4.031834,-4.031819 z"
       inkscape:label="rouage" />
    <circle
       style="display:none;fill:#529e17;stroke:#000000;stroke-width:1;stroke-dasharray:none"
       id="circle17"
       cx="15.841623"
       cy="15.827665"
       r="2.0946879" />
    <path
       id="path3"
       style="display:none;fill:#b5b5b5;fill-opacity:1;stroke:#000000;stroke-width:1.5;stroke-dasharray:none"
       inkscape:transform-center-x="1.9168659"
       inkscape:transform-center-y="-1.9928517"
       d="M 11.392524,1.1043427 C 11.12992,1.084931 10.827063,1.1313069 10.475939,1.2562301 6.7306131,2.5887378 12.966691,7.358607 10.170411,10.184223 7.3741311,13.00984 2.5402701,6.823741 1.2468736,10.582817 c -1.29339665,3.759077 6.3235675,1.857078 6.7892275,5.805083 0.465661,3.948006 -7.38529305,3.871521 -5.2528058,7.226504 2.1324872,3.354983 5.3955798,-3.786666 8.7725277,-1.689199 3.37695,2.097466 -1.5785719,8.187408 2.373991,8.611929 3.952566,0.424517 0.403891,-6.578808 4.149218,-7.911316 3.745325,-1.332506 5.416991,6.338341 8.21327,3.512726 2.79628,-2.825616 -4.892134,-4.417381 -3.598737,-8.176458 1.293396,-3.759076 8.333895,-0.282893 7.868234,-4.230898 C 30.096139,9.783183 24.05784,14.801717 21.925353,11.446732 19.792867,8.091748 26.899303,4.7549232 23.522354,2.6574575 20.145405,0.55999085 20.304658,8.409449 16.352093,7.984929 12.770082,7.600208 13.931031,1.291991 11.392524,1.1043427 Z m 4.151851,9.4003363 a 4.997413,4.9974499 0 0 1 4.997321,4.997359 4.997413,4.9974499 0 0 1 -4.997321,4.998235 4.997413,4.9974499 0 0 1 -4.997322,-4.998235 4.997413,4.9974499 0 0 1 4.997322,-4.997359 z"
       inkscape:label="ref-center" />
  </g>
</svg>
